<?xml version="1.0" encoding="UTF-8"?>
<svg id="Layer_2" data-name="Layer 2" xmlns="http://www.w3.org/2000/svg" viewBox="0 0 385.67 433.83">
  <defs>
    <style>
      .cls-1 {
        fill: #f8a055;
      }

      .cls-1, .cls-2, .cls-3, .cls-4, .cls-5, .cls-6 {
        stroke-width: 0px;
      }

      .cls-2 {
        fill: #49c4c1;
      }

      .cls-3 {
        fill: #0077b6;
      }

      .cls-4 {
        fill: #d95d39;
      }

      .cls-5 {
        fill: #e8b647;
      }

      .cls-6 {
        fill: #3c4f76;
      }
    </style>
  </defs>
  <g id="Page_9:_Colour." data-name="Page 9: Colour.">
    <g>
      <g>
        <path class="cls-5" d="M230,37.16c0,1.28-.07,2.56-.2,3.81-.54,5.36-2.22,10.37-4.8,14.81-6.42,11.09-18.42,18.54-32.17,18.54s-25.74-7.45-32.17-18.54c-2.58-4.44-4.26-9.46-4.8-14.82-.13-1.25-.2-2.52-.2-3.8,0-20.53,16.64-37.16,37.16-37.16s37.16,16.64,37.16,37.16Z"/>
        <path class="cls-5" d="M287.33,91.78c-.54.95-1.11,1.89-1.68,2.81-.01.01-.01.02-.02.03-4.63,7.46-10.14,14.34-16.37,20.45-8.58,8.43-18.55,15.44-29.54,20.66-14.2,6.77-30.11,10.57-46.88,10.57s-32.68-3.79-46.89-10.57c.23-2.85.34-5.73.34-8.64,0-9.44-1.19-18.59-3.44-27.31-2.21-8.57-5.44-16.74-9.55-24.35,5.22,8.1,12.04,15.06,20.01,20.44,11.29,7.61,24.88,12.06,39.52,12.06s28.23-4.45,39.52-12.06c7.97-5.38,14.78-12.33,20-20.42,0-.01.01-.01.01-.02.51-.98,1.06-1.94,1.62-2.9l.1.07,33.14,19.12.1.07Z"/>
      </g>
      <g>
        <g>
          <path class="cls-1" d="M348.5,236.09v.12c-1.07,0-2.15-.01-3.21-.04,1.06-.05,2.14-.08,3.21-.08Z"/>
          <path class="cls-1" d="M385.67,127.09c0,15.11-9.02,28.12-21.97,33.93-4.64,2.08-9.78,3.23-15.19,3.23-20.53,0-37.16-16.64-37.16-37.16,0-6.77,1.81-13.12,4.98-18.59,2.62-4.53,6.16-8.45,10.38-11.51,6.13-4.44,13.66-7.07,21.81-7.07,20.53,0,37.16,16.65,37.16,37.16Z"/>
        </g>
        <path class="cls-1" d="M348.5,197.72v38.37c-1.07,0-2.15.02-3.21.08h-.07c-8.95-.27-17.64-1.62-25.93-3.92-11.83-3.27-22.84-8.48-32.68-15.28-26.31-18.14-44.26-47.54-46.9-81.24,10.98-5.22,20.95-12.23,29.54-20.66,6.24-6.12,11.75-12.99,16.37-20.45-4.33,8.35-7.04,17.69-7.7,27.57-.12,1.62-.18,3.25-.18,4.9,0,27.96,16.21,52.12,39.74,63.61h0c8.46,4.13,17.86,6.63,27.8,7.07h.07c1.04-.03,2.09-.04,3.14-.04Z"/>
      </g>
      <g>
        <g>
          <path class="cls-4" d="M348.5,236.09v.12c-1.07,0-2.15-.01-3.21-.04,1.06-.05,2.14-.08,3.21-.08Z"/>
          <path class="cls-4" d="M348.5,236.09v.12c-1.07,0-2.15-.01-3.21-.04,1.06-.05,2.14-.08,3.21-.08Z"/>
          <path class="cls-4" d="M385.67,306.85c0,20.53-16.64,37.16-37.16,37.16-8.18,0-15.73-2.63-21.86-7.1-4.19-3.06-7.72-6.97-10.32-11.47-3.17-5.47-4.98-11.81-4.98-18.59,0-20.53,16.64-37.16,37.16-37.16,5.4,0,10.53,1.15,15.16,3.21,12.97,5.81,22.01,18.83,22.01,33.95Z"/>
        </g>
        <path class="cls-4" d="M345.23,236.17c-9.92.45-19.3,2.94-27.74,7.06h0c-23.53,11.5-39.74,35.66-39.74,63.62,0,1.64.06,3.28.18,4.9.66,9.66,3.27,18.8,7.41,27,0,.01.01.01.01.02.7,1.11,1.38,2.22,2.03,3.36l-.14.09-33.1,19.1-.14.09c-.66-1.13-1.29-2.27-1.91-3.42h0c-3.97-7.47-7.1-15.46-9.26-23.84-2.25-8.72-3.44-17.88-3.44-27.31,0-2.94.12-5.85.35-8.73,2.66-33.67,20.6-63.03,46.89-81.14,9.84,6.79,20.86,12.01,32.68,15.28,8.29,2.3,16.98,3.65,25.93,3.92Z"/>
      </g>
      <g>
        <path class="cls-2" d="M252.08,357.98c-5.15-7.88-11.83-14.66-19.62-19.95-11.31-7.65-24.94-12.12-39.63-12.12s-28.32,4.47-39.63,12.12c-7.78,5.28-14.47,12.07-19.62,19.95-.01.02-.02.05-.04.08-.6,1.13-1.22,2.25-1.86,3.35l-.14-.09-33.1-19.1-.14-.09c.65-1.13,1.31-2.25,2.02-3.34,0-.01,0-.02.01-.02,4.55-7.27,9.94-13.96,16.03-19.94,8.59-8.45,18.58-15.49,29.58-20.72,14.21-6.77,30.12-10.56,46.9-10.56s32.68,3.79,46.9,10.56c-.23,2.88-.35,5.8-.35,8.73,0,9.44,1.19,18.59,3.44,27.31,2.16,8.37,5.29,16.36,9.26,23.83Z"/>
        <path class="cls-2" d="M230,396.67c0,20.53-16.64,37.16-37.16,37.16s-37.16-16.64-37.16-37.16c0-1.28.07-2.55.2-3.8.54-5.33,2.2-10.32,4.76-14.75,6.42-11.12,18.44-18.61,32.21-18.61s25.79,7.49,32.21,18.61c2.54,4.43,4.22,9.41,4.76,14.74.13,1.26.2,2.53.2,3.81Z"/>
      </g>
      <g>
        <path class="cls-6" d="M146.29,127.09c0,2.9-.11,5.79-.34,8.64-2.64,33.7-20.58,63.11-46.9,81.24-9.84-6.79-20.86-12.01-32.68-15.28-8.31-2.31-17.02-3.66-26-3.92,9.94-.44,19.34-2.94,27.8-7.06,23.53-11.5,39.74-35.66,39.74-63.62,0-1.64-.05-3.28-.17-4.9-.67-9.9-3.39-19.24-7.73-27.61-.57-.92-1.14-1.85-1.68-2.81l.1-.07,33.14-19.12.1-.07c.56.96,1.11,1.93,1.62,2.9,4.11,7.62,7.33,15.78,9.55,24.35,2.25,8.72,3.44,17.88,3.44,27.31Z"/>
        <path class="cls-6" d="M74.33,127.09c0,20.53-16.64,37.16-37.16,37.16-5.44,0-10.6-1.16-15.24-3.26C9,155.18,0,142.18,0,127.09c0-20.52,16.64-37.16,37.16-37.16,8.13,0,15.65,2.61,21.77,7.05,4.23,3.06,7.79,6.99,10.42,11.53,3.17,5.47,4.98,11.81,4.98,18.59Z"/>
      </g>
      <g>
        <path class="cls-3" d="M145.94,298.11c-11,5.24-20.99,12.27-29.58,20.72-6.09,5.97-11.49,12.67-16.03,19.94,4.15-8.22,6.76-17.36,7.42-27.03.12-1.62.17-3.25.17-4.9,0-27.96-16.21-52.12-39.74-63.61h0c-8.44-4.13-17.82-6.62-27.74-7.07h-.07c-1.06.03-2.14.04-3.21.04v-38.49c1.07,0,2.15.01,3.21.04,8.98.26,17.69,1.61,26,3.92,11.83,3.27,22.84,8.48,32.68,15.28,26.28,18.12,44.22,47.48,46.89,81.14Z"/>
        <path class="cls-3" d="M74.33,306.85c0,6.77-1.81,13.12-4.98,18.59-2.61,4.52-6.15,8.44-10.36,11.5-6.13,4.45-13.67,7.08-21.83,7.08-20.53,0-37.16-16.64-37.16-37.16,0-15.11,9.01-28.11,21.95-33.92,4.65-2.08,9.79-3.24,15.21-3.24,20.53,0,37.16,16.64,37.16,37.16Z"/>
      </g>
    </g>
  </g>
</svg>