<?xml version="1.0" encoding="UTF-8"?>
<svg id="Layer_2" data-name="Layer 2" xmlns="http://www.w3.org/2000/svg" viewBox="0 0 573.19 169.97">
  <defs>
    <style>
      .cls-1 {
        fill: #37496d;
      }

      .cls-1, .cls-2, .cls-3, .cls-4, .cls-5, .cls-6, .cls-7 {
        stroke-width: 0px;
      }

      .cls-2 {
        fill: #f8a055;
      }

      .cls-3 {
        fill: #49c4c1;
      }

      .cls-4 {
        fill: #0077b6;
      }

      .cls-5 {
        fill: #d95d39;
      }

      .cls-6 {
        fill: #e8b647;
      }

      .cls-7 {
        fill: #3c4f76;
      }
    </style>
  </defs>
  <g id="Page_10:_Final_Logo." data-name="Page 10: Final Logo.">
    <g>
      <g>
        <g>
          <path class="cls-6" d="M90.11,14.56c0,.5-.03,1-.08,1.49-.21,2.1-.87,4.06-1.88,5.8-2.52,4.35-7.22,7.27-12.6,7.27s-10.09-2.92-12.6-7.27c-1.01-1.74-1.67-3.71-1.88-5.81-.05-.49-.08-.99-.08-1.49,0-8.04,6.52-14.56,14.56-14.56s14.56,6.52,14.56,14.56Z"/>
          <path class="cls-6" d="M112.57,35.96c-.21.37-.43.74-.66,1.1,0,0,0,0,0,.01-1.81,2.92-3.97,5.62-6.42,8.01-3.36,3.3-7.27,6.05-11.57,8.09-5.56,2.65-11.8,4.14-18.37,4.14s-12.8-1.49-18.37-4.14c.09-1.12.13-2.25.13-3.38,0-3.7-.47-7.28-1.35-10.7-.87-3.36-2.13-6.56-3.74-9.54,2.04,3.17,4.72,5.9,7.84,8.01,4.42,2.98,9.75,4.72,15.48,4.72s11.06-1.74,15.48-4.72c3.12-2.11,5.79-4.83,7.84-8,0,0,0,0,0,0,.2-.38.42-.76.64-1.14l.04.03,12.98,7.49.04.03Z"/>
        </g>
        <g>
          <g>
            <path class="cls-2" d="M136.54,92.5v.05c-.42,0-.84,0-1.26-.02.42-.02.84-.03,1.26-.03Z"/>
            <path class="cls-2" d="M151.1,49.79c0,5.92-3.53,11.02-8.61,13.29-1.82.82-3.83,1.27-5.95,1.27-8.04,0-14.56-6.52-14.56-14.56,0-2.65.71-5.14,1.95-7.28,1.03-1.77,2.41-3.31,4.07-4.51,2.4-1.74,5.35-2.77,8.54-2.77,8.04,0,14.56,6.52,14.56,14.56Z"/>
          </g>
          <path class="cls-2" d="M136.54,77.46v15.03c-.42,0-.84,0-1.26.03h-.03c-3.51-.11-6.91-.64-10.16-1.54-4.63-1.28-8.95-3.32-12.8-5.99-10.31-7.11-17.34-18.63-18.37-31.83,4.3-2.04,8.21-4.79,11.57-8.09,2.44-2.4,4.6-5.09,6.42-8.01-1.7,3.27-2.76,6.93-3.02,10.8-.05.64-.07,1.28-.07,1.92,0,10.95,6.35,20.42,15.57,24.92h0c3.31,1.62,7,2.6,10.89,2.77h.03c.41-.01.82-.02,1.23-.02Z"/>
        </g>
        <g>
          <g>
            <path class="cls-5" d="M136.54,92.5v.05c-.42,0-.84,0-1.26-.02.42-.02.84-.03,1.26-.03Z"/>
            <path class="cls-5" d="M136.54,92.5v.05c-.42,0-.84,0-1.26-.02.42-.02.84-.03,1.26-.03Z"/>
            <path class="cls-5" d="M151.1,120.22c0,8.04-6.52,14.56-14.56,14.56-3.2,0-6.16-1.03-8.57-2.78-1.64-1.2-3.02-2.73-4.04-4.5-1.24-2.14-1.95-4.63-1.95-7.28,0-8.04,6.52-14.56,14.56-14.56,2.12,0,4.13.45,5.94,1.26,5.08,2.28,8.62,7.38,8.62,13.3Z"/>
          </g>
          <path class="cls-5" d="M135.26,92.53c-3.89.18-7.56,1.15-10.87,2.77h0c-9.22,4.5-15.57,13.97-15.57,24.93,0,.64.02,1.28.07,1.92.26,3.78,1.28,7.36,2.9,10.58,0,0,0,0,0,0,.27.43.54.87.79,1.32l-.06.03-12.97,7.48-.06.03c-.26-.44-.51-.89-.75-1.34h0c-1.55-2.93-2.78-6.06-3.63-9.34-.88-3.42-1.35-7-1.35-10.7,0-1.15.05-2.29.14-3.42,1.04-13.19,8.07-24.69,18.37-31.79,3.86,2.66,8.17,4.71,12.8,5.99,3.25.9,6.65,1.43,10.16,1.54Z"/>
        </g>
        <g>
          <path class="cls-3" d="M98.76,140.25c-2.02-3.09-4.63-5.75-7.69-7.81-4.43-3-9.77-4.75-15.53-4.75s-11.1,1.75-15.53,4.75c-3.05,2.07-5.67,4.73-7.69,7.81,0,0,0,.02-.02.03-.24.44-.48.88-.73,1.31l-.06-.03-12.97-7.48-.06-.03c.25-.44.52-.88.79-1.31,0,0,0,0,0,0,1.78-2.85,3.89-5.47,6.28-7.81,3.37-3.31,7.28-6.07,11.59-8.12,5.57-2.65,11.8-4.14,18.37-4.14s12.8,1.49,18.37,4.14c-.09,1.13-.14,2.27-.14,3.42,0,3.7.47,7.28,1.35,10.7.85,3.28,2.07,6.41,3.63,9.33Z"/>
          <path class="cls-3" d="M90.11,155.41c0,8.04-6.52,14.56-14.56,14.56s-14.56-6.52-14.56-14.56c0-.5.03-1,.08-1.49.21-2.09.86-4.04,1.86-5.78,2.52-4.36,7.23-7.29,12.62-7.29s10.1,2.93,12.62,7.29c1,1.73,1.65,3.69,1.86,5.78.05.49.08.99.08,1.49Z"/>
        </g>
        <g>
          <path class="cls-7" d="M57.31,49.79c0,1.14-.04,2.27-.13,3.38-1.03,13.2-8.06,24.72-18.37,31.83-3.86-2.66-8.17-4.71-12.8-5.99-3.25-.91-6.67-1.43-10.19-1.54,3.89-.17,7.58-1.15,10.89-2.77,9.22-4.5,15.57-13.97,15.57-24.93,0-.64-.02-1.28-.07-1.92-.26-3.88-1.33-7.54-3.03-10.82-.22-.36-.45-.73-.66-1.1l.04-.03,12.98-7.49.04-.03c.22.38.43.76.64,1.14,1.61,2.98,2.87,6.18,3.74,9.54.88,3.42,1.35,7,1.35,10.7Z"/>
          <path class="cls-7" d="M29.12,49.79c0,8.04-6.52,14.56-14.56,14.56-2.13,0-4.15-.46-5.97-1.28-5.06-2.28-8.59-7.37-8.59-13.29,0-8.04,6.52-14.56,14.56-14.56,3.19,0,6.13,1.02,8.53,2.76,1.66,1.2,3.05,2.74,4.08,4.52,1.24,2.14,1.95,4.63,1.95,7.28Z"/>
        </g>
        <g>
          <path class="cls-4" d="M57.18,116.8c-4.31,2.05-8.22,4.81-11.59,8.12-2.39,2.34-4.5,4.96-6.28,7.81,1.63-3.22,2.65-6.8,2.91-10.59.05-.64.07-1.28.07-1.92,0-10.95-6.35-20.42-15.57-24.92h0c-3.31-1.62-6.98-2.59-10.87-2.77h-.03c-.42.01-.84.02-1.26.02v-15.08c.42,0,.84,0,1.26.02,3.52.1,6.93.63,10.19,1.54,4.63,1.28,8.95,3.32,12.8,5.99,10.3,7.1,17.33,18.6,18.37,31.79Z"/>
          <path class="cls-4" d="M29.12,120.22c0,2.65-.71,5.14-1.95,7.28-1.02,1.77-2.41,3.31-4.06,4.5-2.4,1.74-5.35,2.77-8.55,2.77-8.04,0-14.56-6.52-14.56-14.56,0-5.92,3.53-11.01,8.6-13.29,1.82-.82,3.83-1.27,5.96-1.27,8.04,0,14.56,6.52,14.56,14.56Z"/>
        </g>
      </g>
      <g>
        <path class="cls-1" d="M184.85,88.59c2.6,3.23,6.1,4.85,10.5,4.85s7.88-1.62,10.45-4.85c2.57-3.23,3.85-7.65,3.85-13.25v-38.6h15.6v39.1c0,10.13-2.8,17.92-8.4,23.35-5.6,5.43-12.77,8.15-21.5,8.15s-15.92-2.73-21.55-8.2c-5.63-5.47-8.45-13.23-8.45-23.3v-39.1h15.6v38.6c0,5.6,1.3,10.02,3.9,13.25Z"/>
        <path class="cls-1" d="M270.25,76.94l12.4-40.2h16.3l12.3,40.2,13.9-40.2h16.9l-24.4,69.9h-11.6l-15.3-48.6-15.2,48.6h-11.6l-24.4-69.9h16.9l13.8,40.2Z"/>
        <path class="cls-1" d="M407.75,36.74v13.9h-34.8v14.4h31.3v13.3h-31.3v14.5h35.9v13.8h-51.5V36.74h50.4Z"/>
        <path class="cls-1" d="M425.75,106.64v-10.7l36.6-45.7h-35.4v-13.5h56.7v10.8l-36.5,45.5h37.1v13.6h-58.5Z"/>
        <path class="cls-1" d="M562.25,96.99c-7.07,6.9-15.77,10.35-26.1,10.35s-19.03-3.45-26.1-10.35c-7.07-6.9-10.6-15.48-10.6-25.75s3.53-18.85,10.6-25.75c7.07-6.9,15.77-10.35,26.1-10.35s19.03,3.45,26.1,10.35c7.07,6.9,10.6,15.48,10.6,25.75s-3.53,18.85-10.6,25.75ZM556.95,71.29c0-6.23-2-11.55-6-15.95-4-4.4-8.92-6.6-14.75-6.6s-10.75,2.2-14.75,6.6c-4,4.4-6,9.72-6,15.95s2,11.54,6,15.9c4,4.37,8.92,6.55,14.75,6.55s10.75-2.18,14.75-6.55c4-4.37,6-9.67,6-15.9Z"/>
      </g>
      <g>
        <path class="cls-1" d="M172.49,134.83c-1.07,0-2.06-.18-2.97-.53s-1.71-.85-2.38-1.5c-.67-.65-1.2-1.41-1.57-2.29-.37-.88-.56-1.84-.56-2.88s.19-2,.56-2.88c.37-.88.9-1.64,1.58-2.29.68-.65,1.47-1.15,2.38-1.5.91-.35,1.9-.53,2.98-.53,1.15,0,2.19.2,3.14.59.95.39,1.75.98,2.4,1.75l-1.68,1.58c-.51-.55-1.07-.96-1.7-1.23s-1.31-.41-2.04-.41-1.4.12-2.01.36c-.61.24-1.13.58-1.58,1.02-.45.44-.79.96-1.04,1.56-.25.6-.37,1.26-.37,1.98s.12,1.38.37,1.98c.25.6.59,1.12,1.04,1.56.45.44.97.78,1.58,1.02.61.24,1.28.36,2.01.36s1.41-.14,2.04-.41c.63-.27,1.19-.69,1.7-1.25l1.68,1.6c-.65.76-1.45,1.34-2.4,1.74-.95.4-2,.6-3.16.6Z"/>
        <path class="cls-1" d="M203.37,134.63v-14h5.74c1.87,0,3.33.44,4.39,1.32,1.06.88,1.59,2.1,1.59,3.66,0,1.03-.24,1.91-.72,2.65-.48.74-1.16,1.31-2.05,1.7s-1.95.59-3.19.59h-4.32l1.16-1.18v5.26h-2.6ZM205.97,129.65l-1.16-1.24h4.2c1.15,0,2.01-.25,2.59-.74s.87-1.18.87-2.06-.29-1.58-.87-2.06c-.58-.48-1.44-.72-2.59-.72h-4.2l1.16-1.28v8.1ZM212.53,134.63l-3.54-5.08h2.78l3.56,5.08h-2.8Z"/>
        <path class="cls-1" d="M240.99,134.63v-14h10.22v2.18h-7.62v9.64h7.9v2.18h-10.5ZM243.39,128.59v-2.14h6.96v2.14h-6.96Z"/>
        <path class="cls-1" d="M275.41,134.63l6.3-14h2.56l6.32,14h-2.72l-5.42-12.62h1.04l-5.4,12.62h-2.68ZM278.31,131.39l.7-2.04h7.56l.7,2.04h-8.96Z"/>
        <path class="cls-1" d="M317.51,134.63v-11.8h-4.64v-2.2h11.88v2.2h-4.64v11.8h-2.6Z"/>
        <path class="cls-1" d="M349.71,134.63v-14h2.6v14h-2.6Z"/>
        <path class="cls-1" d="M382.93,134.63l-6.12-14h2.82l5.46,12.66h-1.62l5.52-12.66h2.6l-6.1,14h-2.56Z"/>
        <path class="cls-1" d="M416.07,134.63v-14h10.22v2.18h-7.62v9.64h7.9v2.18h-10.5ZM418.47,128.59v-2.14h6.96v2.14h-6.96Z"/>
        <path class="cls-1" d="M451.29,130.11v-2.08h5.5v2.08h-5.5Z"/>
        <path class="cls-1" d="M482.77,134.63v-14h2.6v14h-2.6ZM485.15,128.63v-2.22h7.66v2.22h-7.66ZM492.61,134.63v-14h2.6v14h-2.6Z"/>
        <path class="cls-1" d="M527.99,134.83c-1.92,0-3.42-.54-4.51-1.62s-1.63-2.64-1.63-4.68v-7.9h2.6v7.8c0,1.44.31,2.49.93,3.14s1.5.98,2.63.98,2.01-.33,2.62-.98.92-1.7.92-3.14v-7.8h2.56v7.9c0,2.04-.54,3.6-1.63,4.68s-2.58,1.62-4.49,1.62Z"/>
        <path class="cls-1" d="M560.75,134.63v-14h6.56c1.68,0,2.96.33,3.84.99s1.32,1.54,1.32,2.65c0,.75-.17,1.38-.52,1.91-.35.53-.81.93-1.39,1.22-.58.29-1.21.43-1.89.43l.36-.72c.79,0,1.49.14,2.12.43.63.29,1.12.7,1.49,1.25.37.55.55,1.23.55,2.04,0,1.2-.46,2.13-1.38,2.8-.92.67-2.29,1-4.1,1h-6.96ZM563.35,132.59h4.2c.97,0,1.72-.16,2.24-.48.52-.32.78-.83.78-1.54s-.26-1.2-.78-1.53c-.52-.33-1.27-.49-2.24-.49h-4.4v-2.02h3.88c.91,0,1.6-.16,2.09-.48.49-.32.73-.8.73-1.44s-.24-1.14-.73-1.46c-.49-.32-1.18-.48-2.09-.48h-3.68v9.92Z"/>
      </g>
    </g>
  </g>
</svg>